<svg width="20" height="20" viewBox="0 0 20 20" fill="none" xmlns="http://www.w3.org/2000/svg">
<path fill-rule="evenodd" clip-rule="evenodd" d="M10 0C15.523 0 20 4.477 20 10C20 15.523 15.523 20 10 20C4.477 20 0 15.523 0 10C0 4.477 4.477 0 10 0ZM2.205 11.81C2.55496 13.3124 3.33129 14.6817 4.44071 15.7536C5.55013 16.8254 6.94545 17.554 8.459 17.852C8.266 15.227 7.403 13.652 6.313 12.781C5.269 11.946 3.853 11.623 2.205 11.809V11.81ZM13.687 12.78C12.597 13.653 11.734 15.227 11.541 17.852C13.0547 17.554 14.4501 16.8252 15.5595 15.7531C16.669 14.6811 17.4452 13.3116 17.795 11.809C16.147 11.623 14.731 11.946 13.687 12.781V12.78ZM10 2C8.13617 2.00025 6.33088 2.65102 4.89559 3.84004C3.46029 5.02907 2.48501 6.68176 2.138 8.513L2.095 8.761L4.305 8.319C4.887 8.203 5.44 7.896 6.058 7.479L6.535 7.147C7.332 6.581 8.513 6 10 6C11.388 6 12.509 6.506 13.3 7.034L13.942 7.479C14.482 7.844 14.974 8.124 15.478 8.267L15.695 8.319L17.905 8.761C17.6092 6.87693 16.6503 5.16044 15.2009 3.92084C13.7516 2.68124 11.9071 2.00004 10 2Z" fill="black"/>
</svg>
