<svg width="36" height="36" viewBox="0 0 36 36" fill="none" xmlns="http://www.w3.org/2000/svg">
<path d="M26.4856 17.9985C29.2417 14.8949 31.5784 11.8482 33.268 9.14004C35.9672 4.81117 36.6682 1.95023 35.359 0.638085C34.0469 -0.674056 31.1889 0.0299461 26.8571 2.72912C24.1489 4.41873 21.1022 6.75242 17.9986 9.51151C14.895 6.75542 11.8483 4.41873 9.14016 2.72912C4.81129 0.032942 1.95034 -0.671061 0.641198 0.64108C-0.670944 1.95023 0.0330589 4.81117 2.73224 9.14004C4.42184 11.8512 6.75554 14.8949 9.51463 17.9985C6.75853 21.1021 4.42184 24.1488 2.73224 26.8569C0.0330589 31.1888 -0.670944 34.0468 0.641198 35.3589C1.06959 35.7873 1.65975 36 2.41469 36C3.97248 36 6.22529 35.0863 9.14315 33.2679C11.8543 31.5783 14.898 29.2446 18.0016 26.4855C21.1052 29.2416 24.1519 31.5783 26.8601 33.2679C29.7779 35.0863 32.0277 36 33.5885 36C34.3435 36 34.9336 35.7873 35.362 35.3589C36.6742 34.0468 35.9701 31.1888 33.271 26.8569C31.5814 24.1458 29.2477 21.1021 26.4886 17.9985H26.4856ZM27.5131 3.78363C29.5892 2.48946 32.1506 1.23424 33.5975 1.23424C33.978 1.23424 34.2835 1.32112 34.4783 1.51884C35.4219 2.4625 33.8462 5.85969 32.2135 8.48397C30.5778 11.1083 28.319 14.0561 25.6498 17.0698C24.6043 15.9224 23.5078 14.7721 22.3664 13.6307C21.225 12.4893 20.0747 11.3899 18.9273 10.3473C21.941 7.67811 24.8918 5.41931 27.5131 3.78363ZM24.8169 17.9985C23.7594 19.1608 22.648 20.3292 21.4887 21.4885C20.3293 22.6479 19.161 23.7623 17.9986 24.8168C16.8363 23.7593 15.6679 22.6479 14.5086 21.4885C13.3492 20.3292 12.2348 19.1608 11.1803 17.9985C12.2378 16.8361 13.3492 15.6678 14.5086 14.5084C15.6679 13.3491 16.8363 12.2347 17.9986 11.1802C19.161 12.2377 20.3293 13.3491 21.4887 14.5084C22.648 15.6678 23.7624 16.8361 24.8169 17.9985ZM3.78375 8.48397C2.15106 5.85969 0.575291 2.4625 1.51895 1.51884C1.71667 1.32112 2.01925 1.23424 2.39971 1.23424C3.84666 1.23424 6.40803 2.48946 8.48409 3.78363C11.1084 5.41931 14.0562 7.67811 17.0699 10.3473C15.9225 11.3928 14.7722 12.4893 13.6308 13.6307C12.4894 14.7721 11.39 15.9224 10.3474 17.0698C7.67823 14.0561 5.41943 11.1053 3.78375 8.48397ZM8.48409 32.2134C5.8598 33.849 2.46262 35.4218 1.51895 34.4811C0.575291 33.5375 2.15106 30.1403 3.78674 27.516C5.42242 24.8917 7.68122 21.9439 10.3504 18.9302C11.396 20.0775 12.4924 21.2279 13.6338 22.3693C14.7752 23.5107 15.9255 24.6101 17.0729 25.6526C14.0592 28.3219 11.1084 30.5807 8.48708 32.2164L8.48409 32.2134ZM34.4813 34.4811C34.2835 34.6789 33.981 34.7657 33.6005 34.7657C32.1536 34.7657 29.5922 33.5105 27.5161 32.2164C24.8948 30.5807 21.944 28.3219 18.9303 25.6526C20.0777 24.6071 21.228 23.5107 22.3694 22.3693C23.5108 21.2279 24.6102 20.0775 25.6528 18.9302C28.322 21.9439 30.5808 24.8947 32.2165 27.516C33.8521 30.1403 35.4249 33.5375 34.4813 34.4811Z" fill="black"/>
</svg>
