<svg width="18" height="20" viewBox="0 0 18 20" fill="none" xmlns="http://www.w3.org/2000/svg">
<path d="M0.468148 14.745C0.963148 13.787 2.00815 13.145 3.27215 13.304C4.60878 13.4666 5.93448 13.709 7.24215 14.03C9.25215 14.532 11.0131 15.497 12.3151 16.378L12.7551 16.684L13.1551 16.979L13.5131 17.255L13.8271 17.509L14.0941 17.735L14.3141 17.927C15.1571 18.678 14.5841 19.905 13.6291 19.995L13.5171 20H4.92315C3.24115 20 1.84315 19.155 0.819148 17.874C0.0451479 16.907 -0.020852 15.691 0.469148 14.745H0.468148ZM16.0001 0C16.8931 0 17.2781 0.84 17.4671 1.61L17.5271 1.878L17.5511 2.006C17.6951 2.803 17.7721 3.848 17.8031 4.922C17.8631 7.047 17.7411 9.524 17.4761 10.717C17.0141 12.799 16.3361 14.246 15.5241 15.118C14.6981 16.008 13.5821 16.409 12.5531 15.894C11.7641 15.5 11.2931 14.563 11.0351 13.764C10.6586 12.5994 10.6645 11.3449 11.0521 10.184C11.2621 9.552 11.6401 9.042 12.0561 8.557L12.4191 8.146C12.8611 7.651 13.3041 7.156 13.6061 6.553C14.0461 5.673 14.1661 4.71 14.2031 3.743L14.2171 3.163L14.2261 2.603L14.2321 2.465L14.2521 2.185C14.3471 1.107 14.7161 0 16.0001 0Z" fill="black"/>
</svg>
