<svg width="48" height="48" viewBox="0 0 48 48" fill="none" xmlns="http://www.w3.org/2000/svg">
<path d="M46.635 19.673C46.9148 21.2839 47.0544 22.916 47.052 24.551C47.052 31.853 44.442 38.027 39.9 42.206H39.906C35.934 45.875 30.474 47.999 24 47.999C17.6348 47.999 11.5303 45.4705 7.02944 40.9696C2.52856 36.4687 0 30.3642 0 23.999C0 17.6338 2.52856 11.5293 7.02944 7.02846C11.5303 2.52758 17.6348 -0.000979817 24 -0.000979817C29.9578 -0.0707549 35.7115 2.16752 40.056 6.24502L33.204 13.097C30.7271 10.7359 27.4215 9.44299 24 9.49702C17.739 9.49702 12.42 13.721 10.524 19.409C9.51872 22.3895 9.51872 25.6175 10.524 28.598H10.533C12.438 34.277 17.748 38.501 24.009 38.501C27.243 38.501 30.021 37.673 32.175 36.209H32.166C33.4167 35.3804 34.4866 34.307 35.3111 33.0536C36.1355 31.8001 36.6975 30.3926 36.963 28.916H24V19.676L46.635 19.673Z" fill="#B7E404"/>
</svg>
