<svg width="32" height="14" viewBox="0 0 32 14" fill="none" xmlns="http://www.w3.org/2000/svg">
<path d="M30.982 7.2715C30.2414 6.53091 29.2509 6.19469 28.2809 6.26284C27.5993 6.31055 26.9292 6.0652 26.4475 5.58359L26.4316 5.56769C25.95 5.08607 25.6979 4.42045 25.7478 3.74119C25.8319 2.60077 25.3548 1.42854 24.3212 0.669773C23.8009 0.288117 23.1967 0.0700283 22.5833 0.0177779C21.586 -0.077636 20.5569 0.258584 19.7936 1.0219C19.0802 1.73523 18.7417 2.67801 18.7758 3.6117C18.8394 5.31552 17.2606 6.40142 15.6612 6.29919C14.3141 6.21514 13.1214 5.14741 13.2236 3.74346C13.3077 2.60304 12.8306 1.43081 11.797 0.672045C11.2767 0.290389 10.6724 0.0723001 10.0591 0.0200496C9.06177 -0.0753642 8.03267 0.260856 7.26935 1.02417C5.76545 2.52807 6.8718 5.5018 4.37968 6.14926C3.10749 6.48093 2.04658 6.24694 1.02202 7.26923C-0.336496 8.6232 -0.341039 10.8291 1.01066 12.1853C2.3669 13.5461 4.57278 13.5484 5.93129 12.1876C6.67188 11.447 7.01037 10.4542 6.94222 9.48647C6.8718 8.46645 7.46927 7.56683 8.3916 7.14656C9.43434 6.67176 10.9632 6.89894 11.7765 7.71223C12.2786 8.21428 12.5489 8.90036 12.5217 9.60915C12.4876 10.5383 12.8238 11.4811 13.5326 12.1899C15.4659 14.1277 19.0189 13.0713 19.4051 10.2929C19.4778 9.77498 19.4278 9.24112 19.555 8.73225C19.8186 7.67815 20.8272 6.99435 21.8768 6.91938C23.4965 6.80352 25.1095 7.86671 25.0459 9.60687C25.0118 10.536 25.348 11.4788 26.0568 12.1876C27.4085 13.5438 29.6144 13.5461 30.9729 12.1944C32.3359 10.8359 32.3382 8.63229 30.9797 7.27378L30.982 7.2715Z" fill="white"/>
</svg>
