<svg width="23" height="21" viewBox="0 0 23 21" fill="none" xmlns="http://www.w3.org/2000/svg">
<path d="M7.37753 6.33992L0.997532 7.26492L0.884532 7.28792C0.713471 7.33333 0.557527 7.42333 0.432624 7.54872C0.307721 7.67412 0.218335 7.83041 0.173594 8.00165C0.128852 8.17289 0.130359 8.35293 0.177959 8.5234C0.225559 8.69386 0.317548 8.84864 0.444532 8.97192L5.06653 13.4709L3.97653 19.8259L3.96353 19.9359C3.95306 20.1128 3.9898 20.2894 4.06998 20.4474C4.15017 20.6055 4.27092 20.7394 4.41987 20.8354C4.56882 20.9315 4.74062 20.9862 4.91768 20.994C5.09474 21.0018 5.2707 20.9625 5.42753 20.8799L11.1335 17.8799L16.8265 20.8799L16.9265 20.9259C17.0916 20.9909 17.271 21.0109 17.4463 20.9837C17.6216 20.9565 17.7865 20.8832 17.9241 20.7712C18.0617 20.6592 18.1671 20.5127 18.2294 20.3466C18.2916 20.1804 18.3086 20.0008 18.2785 19.8259L17.1875 13.4709L21.8115 8.97092L21.8895 8.88592C22.001 8.74869 22.074 8.58438 22.1013 8.40972C22.1285 8.23506 22.109 8.0563 22.0446 7.89165C21.9803 7.72701 21.8735 7.58235 21.735 7.47244C21.5966 7.36252 21.4315 7.29126 21.2565 7.26592L14.8765 6.33992L12.0245 0.559923C11.942 0.392457 11.8143 0.251438 11.6557 0.152827C11.4972 0.0542165 11.3142 0.00195313 11.1275 0.00195312C10.9408 0.00195313 10.7579 0.0542165 10.5993 0.152827C10.4408 0.251438 10.3131 0.392457 10.2305 0.559923L7.37753 6.33992Z" fill="#FAD618"/>
</svg>
