<svg width="54" height="44" viewBox="0 0 54 44" fill="none" xmlns="http://www.w3.org/2000/svg">
<path d="M49.1591 37.221C54.1911 31.7597 53.6844 24.7464 53.6684 24.6664V3.33305C53.6684 2.6258 53.3875 1.94753 52.8874 1.44743C52.3873 0.947334 51.709 0.666382 51.0017 0.666382H35.0017C32.0604 0.666382 29.6684 3.05838 29.6684 5.99971V24.6664C29.6684 25.3736 29.9494 26.0519 30.4495 26.552C30.9496 27.0521 31.6278 27.333 32.3351 27.333H40.5431C40.4867 28.6514 40.0928 29.9332 39.3991 31.0557C38.0444 33.1917 35.4924 34.6504 31.8097 35.3864L29.6684 35.813V43.333H32.3351C39.7564 43.333 45.4177 41.277 49.1591 37.221ZM19.8071 37.221C24.8417 31.7597 24.3324 24.7464 24.3164 24.6664V3.33305C24.3164 2.6258 24.0355 1.94753 23.5354 1.44743C23.0353 0.947334 22.357 0.666382 21.6497 0.666382H5.64974C2.70841 0.666382 0.316406 3.05838 0.316406 5.99971V24.6664C0.316406 25.3736 0.597358 26.0519 1.09745 26.552C1.59755 27.0521 2.27583 27.333 2.98307 27.333H11.1911C11.1347 28.6514 10.7408 29.9332 10.0471 31.0557C8.69241 33.1917 6.14041 34.6504 2.45774 35.3864L0.316406 35.813V43.333H2.98307C10.4044 43.333 16.0657 41.277 19.8071 37.221Z" fill="black"/>
</svg>
