<svg width="14" height="20" viewBox="0 0 14 20" fill="none" xmlns="http://www.w3.org/2000/svg">
<path fill-rule="evenodd" clip-rule="evenodd" d="M8 4.04725e-09C9.55238 -5.69771e-05 11.0444 0.601566 12.1625 1.67847C13.2806 2.75537 13.9378 4.22371 13.996 5.775L14 6V14C14.0001 15.5524 13.3984 17.0444 12.3215 18.1625C11.2446 19.2806 9.77629 19.9378 8.225 19.996L8 20H6C4.44762 20.0001 2.95564 19.3984 1.83753 18.3215C0.719417 17.2446 0.0622144 15.7763 0.00400019 14.225L4.04725e-09 14V6C-5.69771e-05 4.44762 0.601566 2.95564 1.67847 1.83753C2.75536 0.719417 4.22371 0.0622142 5.775 0.00399995L6 4.04725e-09H8ZM7 4C6.73478 4 6.48043 4.10536 6.29289 4.29289C6.10536 4.48043 6 4.73478 6 5V9C6 9.26522 6.10536 9.51957 6.29289 9.70711C6.48043 9.89464 6.73478 10 7 10C7.26522 10 7.51957 9.89464 7.70711 9.70711C7.89464 9.51957 8 9.26522 8 9V5C8 4.73478 7.89464 4.48043 7.70711 4.29289C7.51957 4.10536 7.26522 4 7 4Z" fill="white"/>
</svg>
