<svg width="8" height="8" viewBox="0 0 8 8" fill="none" xmlns="http://www.w3.org/2000/svg">
<path d="M7.00007 7.00007L5.5524 5.5524M5.5524 5.5524C5.80003 5.30477 5.99646 5.01079 6.13048 4.68725C6.26449 4.36371 6.33347 4.01694 6.33347 3.66674C6.33347 3.31653 6.26449 2.96976 6.13048 2.64622C5.99646 2.32268 5.80003 2.0287 5.5524 1.78107C5.30477 1.53344 5.01079 1.33701 4.68725 1.20299C4.36371 1.06898 4.01694 1 3.66674 1C3.31653 1 2.96976 1.06898 2.64622 1.20299C2.32268 1.33701 2.0287 1.53344 1.78107 1.78107C1.28096 2.28118 1 2.95947 1 3.66674C1 4.374 1.28096 5.05229 1.78107 5.5524C2.28118 6.05251 2.95947 6.33347 3.66674 6.33347C4.374 6.33347 5.05229 6.05251 5.5524 5.5524Z" stroke="black" stroke-width="0.666667" stroke-linecap="round" stroke-linejoin="round"/>
</svg>
