<svg width="24" height="24" viewBox="0 0 24 24" fill="none" xmlns="http://www.w3.org/2000/svg">
<path d="M19.2646 13.5159C19.496 13.3367 19.6834 13.1069 19.8123 12.8442C19.9412 12.5814 20.0083 12.2926 20.0083 11.9999C20.0083 11.7072 19.9412 11.4184 19.8123 11.1556C19.6834 10.8928 19.496 10.663 19.2646 10.4839C16.2671 8.16449 12.92 6.33635 9.34855 5.06786L8.69555 4.83586C7.44755 4.39286 6.12855 5.23686 5.95955 6.52586C5.48744 10.1599 5.48744 13.8398 5.95955 17.4739C6.12955 18.7629 7.44755 19.6069 8.69555 19.1639L9.34855 18.9319C12.92 17.6634 16.2671 15.8352 19.2646 13.5159Z" fill="white"/>
</svg>
