<svg width="18" height="18" viewBox="0 0 18 18" fill="none" xmlns="http://www.w3.org/2000/svg">
<g clip-path="url(#clip0_459_238)">
<path d="M18 8.99649C18 4.0362 13.9633 0 9.0007 0C4.03809 0 0 4.0362 0 8.99649C0 13.9568 3.65311 17.5955 8.28132 17.9635C8.51737 17.9874 8.75763 18.0014 9.0007 18.0014C9.24377 18.0014 9.48404 17.9888 9.72008 17.9635C14.3483 17.5955 18.0014 13.7152 18.0014 8.99649H18ZM9.20865 17.3947C9.1398 17.3961 9.06955 17.3975 9.0007 17.3975C8.93186 17.3975 8.8616 17.3975 8.79276 17.3947C7.81063 17.2908 7.04207 16.4566 7.04207 15.4482C7.04207 14.3683 7.92163 13.4905 9.0007 13.4905C10.0798 13.4905 10.9593 14.3697 10.9593 15.4482C10.9593 16.458 10.1908 17.2908 9.20865 17.3947ZM11.1884 16.7627C11.4202 16.3779 11.5551 15.9285 11.5551 15.4468C11.5551 14.0396 10.41 12.8937 9.0007 12.8937C7.59144 12.8937 6.44634 14.0382 6.44634 15.4468C6.44634 15.9271 6.57981 16.3779 6.81305 16.7627C5.68902 16.0409 4.94294 14.7812 4.94294 13.3487C4.94294 11.1115 6.76387 9.29281 9.0007 9.29281C11.2375 9.29281 13.0585 11.1129 13.0585 13.3487C13.0585 14.7812 12.3124 16.0409 11.1884 16.7627ZM12.6285 16.2572C13.2692 15.4595 13.6542 14.4483 13.6542 13.3487C13.6542 10.7843 11.5663 8.69736 9.0007 8.69736C6.43509 8.69736 4.3472 10.7843 4.3472 13.3487C4.3472 14.4483 4.73218 15.4595 5.37288 16.2572C3.74865 15.114 2.68504 13.2251 2.68504 11.0932C2.68504 7.61317 5.5176 4.78193 8.9993 4.78193C12.481 4.78193 15.3136 7.61317 15.3136 11.0932C15.3136 13.2251 14.2499 15.114 12.6257 16.2572H12.6285ZM14.323 15.4932C15.3136 14.298 15.9107 12.7645 15.9107 11.0932C15.9107 7.28454 12.8112 4.18647 9.0007 4.18647C5.19023 4.18647 2.0907 7.28595 2.0907 11.0946C2.0907 12.7645 2.68785 14.298 3.6784 15.4946C1.79705 13.9526 0.595738 11.6129 0.595738 8.99649C0.594333 4.36342 4.36547 0.594055 9.0007 0.594055C13.6359 0.594055 17.4057 4.36342 17.4057 8.99508C17.4057 11.6115 16.203 13.9512 14.323 15.4932Z" fill="black"/>
</g>
<defs>
<clipPath id="clip0_459_238">
<rect width="18" height="18" fill="white"/>
</clipPath>
</defs>
</svg>
